<?xml version="1.0" encoding="UTF-8" standalone="no"?>
<!-- Created with Inkscape (http://www.inkscape.org/) -->

<svg
   xmlns:dc="http://purl.org/dc/elements/1.1/"
   xmlns:cc="http://creativecommons.org/ns#"
   xmlns:rdf="http://www.w3.org/1999/02/22-rdf-syntax-ns#"
   xmlns:svg="http://www.w3.org/2000/svg"
   xmlns="http://www.w3.org/2000/svg"
   xmlns:sodipodi="http://sodipodi.sourceforge.net/DTD/sodipodi-0.dtd"
   xmlns:inkscape="http://www.inkscape.org/namespaces/inkscape"
   width="210mm"
   height="297mm"
   viewBox="0 0 210 297"
   version="1.1"
   id="svg820"
   inkscape:version="0.92.4 (5da689c313, 2019-01-14)"
   sodipodi:docname="name1.svg">
  <defs
     id="defs814" />
  <sodipodi:namedview
     id="base"
     pagecolor="#ffffff"
     bordercolor="#666666"
     borderopacity="1.0"
     inkscape:pageopacity="0.0"
     inkscape:pageshadow="2"
     inkscape:zoom="0.98994949"
     inkscape:cx="299.14168"
     inkscape:cy="515.46172"
     inkscape:document-units="mm"
     inkscape:current-layer="text816"
     showgrid="false"
     inkscape:window-width="1920"
     inkscape:window-height="1001"
     inkscape:window-x="1911"
     inkscape:window-y="-9"
     inkscape:window-maximized="1" />
  <metadata
     id="metadata817">
    <rdf:RDF>
      <cc:Work
         rdf:about="">
        <dc:format>image/svg+xml</dc:format>
        <dc:type
           rdf:resource="http://purl.org/dc/dcmitype/StillImage" />
        <dc:title />
      </cc:Work>
    </rdf:RDF>
  </metadata>
  <g
     inkscape:label="Layer 1"
     inkscape:groupmode="layer"
     id="layer1">
    <g
       aria-label="忘"
       style="font-style:normal;font-variant:normal;font-weight:normal;font-stretch:normal;font-size:10.58333302px;line-height:1.25;font-family:'Yu Gothic';-inkscape-font-specification:'Yu Gothic, Normal';font-variant-ligatures:normal;font-variant-caps:normal;font-variant-numeric:normal;font-feature-settings:normal;text-align:start;letter-spacing:0px;word-spacing:0px;writing-mode:lr-tb;text-anchor:start;fill:#000000;fill-opacity:1;stroke:none;stroke-width:0.26458332"
       id="text816">
      <path
         style="fill:#002d16;fill-opacity:1;fill-rule:evenodd;stroke:#160710;stroke-width:0.26493612;stroke-linecap:round;stroke-linejoin:round;stroke-miterlimit:4;stroke-dasharray:none;stroke-opacity:1"
         d="M 114.55664,51.917969 C 98.986317,57.973674 83.962331,67.609449 73.990234,81.244141 70.416977,86.961594 73.906678,95.05223 79.761719,96.652344 75.372756,102.03436 69.193646,105.82362 62.466797,107.51953 60.125314,92.68793 59.403823,77.110615 64.369141,62.666016 64.518873,57.867617 56.9845,56.53043 55.939453,61.476562 48.501602,76.10435 41.187822,92.450488 43.238281,109.22266 c 1.269417,5.83957 8.906225,7.76359 12.898438,7.25 -0.484127,6.62652 -3.134503,12.9662 -7.388672,18.07226 -10.497208,-10.6838 -19.9813,-23.02292 -24.416016,-37.458982 -2.688848,-3.916219 -9.529215,-0.484543 -7.476562,4.044922 2.446927,16.18634 5.996258,33.71043 17.414062,46.11328 4.355038,3.35433 11.162603,2.18011 14.425781,-2.08008 3.491922,5.61338 5.526897,12.59642 5.044922,19.41211 -14.615863,-2.4561 -29.736568,-6.51169 -41.804687,-15.70898 -4.3318091,-1.81673 -8.4664722,4.41308 -4.279297,7.26758 11.411716,11.9536 24.836015,23.96544 41.240234,27.75976 6.163685,0.73169 11.17619,-5.69579 11.189454,-10.57422 6.264516,2.60731 11.504429,7.31076 15.103515,13.03516 -13.146693,6.79045 -27.787937,12.07087 -42.802734,11.84375 -5.088306,1.84033 -2.433242,9.65154 2.746296,8.5732 15.703172,2.19256 33.126478,4.30255 47.781047,-3.08883 4.210392,-3.1985 5.287604,-9.69949 2.308594,-14.07421 6.587627,-1.65124 13.612583,-1.31939 19.929684,1.2871 C 98.402343,204.36084 89.462324,217.0438 77.220703,226 c -3.225589,4.52959 4.376379,8.78325 7.580078,5.05859 14.116143,-7.36661 29.521279,-15.89828 37.218749,-30.36718 1.77437,-5.29799 -1.82282,-11.23412 -6.73828,-13.11719 4.4714,-5.31372 10.57803,-9.11094 17.35352,-10.72852 2.52762,14.82136 3.20974,30.48229 -1.83204,44.82227 -0.10616,4.98008 7.89524,5.53698 8.65039,0.65234 6.92894,-14.68233 14.61259,-30.87619 11.96876,-47.52148 -1.58191,-5.3 -8.14724,-7.46803 -12.64844,-6.75195 0.40253,-6.65216 2.77416,-13.13259 7.06054,-18.28907 10.51933,10.56156 20.57651,22.84181 24.8711,37.48828 3.02995,4.24151 9.89865,0.10327 7.52117,-4.64287 -2.64457,-15.89883 -6.17044,-33.11478 -17.22234,-45.45088 -4.42374,-3.6949 -11.87613,-3.03635 -14.99024,2.04102 -3.93241,-5.71752 -5.33831,-12.87031 -4.91601,-19.71875 14.8407,2.2462 29.76322,6.39143 41.84765,15.6875 4.42257,1.55127 7.98305,-5.08316 3.75,-7.60742 -11.7821,-11.25455 -24.87971,-23.56151 -41.50781,-26.4043 -5.65868,-0.3948 -9.73503,5.6447 -10.66992,9.57617 -6.12157,-2.57819 -11.28185,-7.08328 -14.7793,-12.730466 13.2171,-6.809602 27.92521,-12.123121 42.99219,-11.816406 4.97287,-1.82481 2.41844,-9.546287 -2.68581,-8.527909 -15.74348,-2.252933 -33.04227,-4.182359 -47.83372,2.95369 -4.37236,3.105149 -5.46973,9.692813 -2.55664,14.144531 -6.5657,1.614258 -13.545596,1.291076 -19.833988,-1.302734 6.880897,-13.449638 15.909388,-26.127919 28.207028,-35.070313 1.93853,-2.692268 -0.006,-6.806021 -3.4707,-6.458984 z"
         id="path826"
         inkscape:connector-curvature="0" />
    </g>
  </g>
</svg>
