<?xml version="1.0" encoding="UTF-8" standalone="no"?>
<!-- Created with Inkscape (http://www.inkscape.org/) -->

<svg
   xmlns:dc="http://purl.org/dc/elements/1.1/"
   xmlns:cc="http://creativecommons.org/ns#"
   xmlns:rdf="http://www.w3.org/1999/02/22-rdf-syntax-ns#"
   xmlns:svg="http://www.w3.org/2000/svg"
   xmlns="http://www.w3.org/2000/svg"
   xmlns:sodipodi="http://sodipodi.sourceforge.net/DTD/sodipodi-0.dtd"
   xmlns:inkscape="http://www.inkscape.org/namespaces/inkscape"
   width="210mm"
   height="297mm"
   viewBox="0 0 210 297"
   version="1.1"
   id="svg820"
   inkscape:version="0.92.4 (5da689c313, 2019-01-14)"
   sodipodi:docname="name2.svg">
  <defs
     id="defs814" />
  <sodipodi:namedview
     id="base"
     pagecolor="#ffffff"
     bordercolor="#666666"
     borderopacity="1.0"
     inkscape:pageopacity="0.0"
     inkscape:pageshadow="2"
     inkscape:zoom="11.2"
     inkscape:cx="229.49054"
     inkscape:cy="663.37243"
     inkscape:document-units="mm"
     inkscape:current-layer="text816"
     showgrid="false"
     inkscape:window-width="1920"
     inkscape:window-height="1001"
     inkscape:window-x="-9"
     inkscape:window-y="-9"
     inkscape:window-maximized="1" />
  <metadata
     id="metadata817">
    <rdf:RDF>
      <cc:Work
         rdf:about="">
        <dc:format>image/svg+xml</dc:format>
        <dc:type
           rdf:resource="http://purl.org/dc/dcmitype/StillImage" />
        <dc:title />
      </cc:Work>
    </rdf:RDF>
  </metadata>
  <g
     inkscape:label="Layer 1"
     inkscape:groupmode="layer"
     id="layer1">
    <g
       aria-label="芳"
       style="font-style:normal;font-weight:normal;font-size:10.58333302px;line-height:1.25;font-family:sans-serif;letter-spacing:0px;word-spacing:0px;fill:#000000;fill-opacity:1;stroke:none;stroke-width:0.26458332"
       id="text816">
      <path
         id="path818"
         transform="scale(0.26458333)"
         style="stroke-width:0.99999994"
         d="m 219.70508,429.64844 v 3.86718 h -9.72656 V 436.25 h 9.72656 v 4.80469 h 2.89062 V 436.25 h 4.91797 l -1.98828,1.83594 c 1.14664,1.52053 2.29616,3.83534 3.30664,5.58594 h -18.50195 v 2.73437 h 10.11719 c -0.0781,4.81771 -0.75521,8.51561 -2.03125,11.09375 -1.5625,3.12499 -4.58334,5.6901 -9.0625,7.69531 0.75521,0.91145 1.43229,1.83594 2.03125,2.77344 6.45833,-3.20312 10.20833,-7.65625 11.25,-13.35937 h 15.9375 c -0.13022,2.57813 -0.29949,4.72655 -0.50782,6.44531 -0.20833,1.90102 -1.30208,2.85156 -3.28125,2.85156 -2.55208,0 -4.94791,-0.11723 -7.1875,-0.35156 0.23437,1.06769 0.41666,2.16145 0.54688,3.28125 h 7.1875 c 3.4375,0 5.35156,-1.74479 5.74219,-5.23438 0.23437,-1.875 0.49479,-5.13021 0.78125,-9.76562 h -18.67188 c 0.23436,-1.66667 0.36457,-3.47656 0.39063,-5.42969 h 23.24218 v -2.73437 h -17.58398 l 2.23242,-2.22657 c -0.95789,-1.39329 -1.57126,-3.60644 -2.46094,-5.19531 h 5.54688 v 4.80469 h 2.89062 V 436.25 h 9.72657 v -2.73438 h -9.72657 v -3.86718 h -2.89062 v 3.86718 H 222.5957 v -3.86718 z"
         inkscape:connector-curvature="0" />
    </g>
  </g>
</svg>
